<svg xmlns="http://www.w3.org/2000/svg" fill="none" viewBox="0 0 25 25" id="Bash-Icon--Streamline-Svg-Logos" height="25" width="25">
  <desc>
    Bash Icon Streamline Icon: https://streamlinehq.com
  </desc>
  <path fill="#ffffff" d="M21.67549479166667 5.2482291666666665 13.964895833333335 0.6703463541666667c-0.9164322916666667 -0.5465729166666667 -2.058776041666667 -0.5465729166666667 -2.9752083333333332 0L3.2775520833333336 5.2482291666666665c-0.9276744791666667 0.559609375 -1.4924739583333333 1.5660677083333334 -1.4868932291666668 2.649453125v9.154192708333333c-0.005036458333333334 1.0828385416666668 0.5596927083333334 2.088567708333333 1.4868932291666668 2.6479166666666667l7.710572916666667 4.576328125000001c0.9165364583333334 0.5462239583333334 2.058697916666667 0.5462239583333334 2.975234375 0L21.673958333333335 19.699791666666666c0.9282552083333333 -0.5592708333333334 1.493671875 -1.5657552083333335 1.4884114583333334 -2.649453125V7.897682291666667c0.005598958333333333 -1.0833854166666668 -0.5592187500000001 -2.0898437500000004 -1.4868750000000002 -2.649453125Z" stroke-width="0.2604"></path>
  <path fill="#2f3a3e" d="M21.719296875 5.259192708333334 13.99171875 0.67125c-0.9184635416666667 -0.5477776041666668 -2.0633333333333335 -0.5477776041666668 -2.9817708333333335 0L3.280807291666667 5.259192708333334c-0.9296979166666668 0.5608854166666667 -1.4957421875 1.56953125 -1.4901484375000003 2.6553125000000004v9.174348958333335c-0.005046875000000001 1.085234375 0.5609270833333334 2.0931510416666668 1.4901484375000003 2.6537500000000005l7.727578125000001 4.58640625c0.9185416666666668 0.5474218750000001 2.063229166666667 0.5474218750000001 2.9817968750000006 0l7.727552083333334 -4.58640625c0.9303125000000001 -0.5604947916666667 1.4969791666666667 -1.56921875 1.4917187500000002 -2.6552864583333338V7.914505208333334c0.005598958333333333 -1.0857812500000001 -0.5604427083333333 -2.0944270833333336 -1.49015625 -2.6553125000000004Zm-10.440104166666668 18.60096354166667L3.5516145833333335 19.273750000000003c-0.7636458333333334 -0.4627604166666667 -1.2287786458333334 -1.2919791666666667 -1.2255416666666668 -2.1848958333333335V7.914505208333334c-0.0035442708333333337 -0.8929947916666667 0.4616614583333334 -1.722369791666667 1.2255416666666668 -2.1848958333333335L11.279192708333335 1.1416510416666668c0.7520833333333333 -0.4486822916666667 1.6896614583333334 -0.4486822916666667 2.441744791666667 0L21.442317708333334 5.729609375c0.6365104166666667 0.38552083333333337 1.0707291666666667 1.0320312500000002 1.1868229166666668 1.7670833333333333 -0.2568489583333333 -0.5462239583333334 -0.8340364583333334 -0.6963020833333333 -1.5071354166666668 -0.309453125L13.816875000000001 11.711744791666668c-0.9114062500000001 0.5307552083333333 -1.58296875 1.1295833333333334 -1.5845052083333335 2.2282031250000003v9.008802083333334c0 0.6576302083333334 0.26458333333333334 1.0831510416666668 0.6730989583333334 1.2084895833333333 -0.13377604166666668 0.024531250000000004 -0.2694270833333333 0.037473958333333335 -0.4054166666666667 0.03869791666666667 -0.4297135416666667 -0.0003125 -0.8514322916666667 -0.11630208333333335 -1.220859375 -0.33578125000000003Z" stroke-width="0.2604"></path>
  <path fill="#ffffff" d="m19.672656250000003 17.95625 -1.920703125 1.1486979166666667c-0.05143229166666667 0.020677083333333336 -0.08591145833333334 0.06966145833333334 -0.08799479166666667 0.125078125v0.5048697916666667c0 0.06177083333333334 0.041692708333333335 0.08645833333333335 0.09263020833333334 0.057135416666666675l1.9500520833333335 -1.18578125c0.047734375 -0.03580729166666667 0.07059895833333334 -0.09591145833333334 0.05864583333333334 -0.15440104166666668v-0.44309895833333335c-0.0015364583333333335 -0.057135416666666675 -0.04630208333333334 -0.08184895833333335 -0.09263020833333334 -0.052500000000000005Z" stroke-width="0.2604"></path>
  <path fill="#ffffff" d="M15.585208333333334 13.726901041666668c0.06177083333333334 -0.03088541666666667 0.11270833333333334 0 0.11427083333333335 0.08799479166666667l0.006171875 0.6700781250000001c0.2309635416666667 -0.104921875 0.4886458333333334 -0.13619791666666667 0.7380208333333335 -0.08955729166666666 0.047864583333333335 0.012369791666666668 0.06791666666666667 0.07721354166666666 0.04940104166666667 0.15440104166666668l-0.1466666666666667 0.5882552083333334c-0.011119791666666668 0.044401041666666675 -0.0340625 0.08494791666666666 -0.06640625 0.11734375000000001 -0.011354166666666667 0.011197916666666667 -0.024375 0.02057291666666667 -0.03859375 0.027786458333333337 -0.01744791666666667 0.009453125 -0.037578125000000004 0.012708333333333335 -0.057135416666666675 0.009270833333333334 -0.24315104166666668 -0.053854166666666675 -0.4976822916666667 -0.012994791666666668 -0.7117708333333334 0.11424479166666666 -0.31302083333333336 0.141015625 -0.51765625 0.4488541666666667 -0.526484375 0.7920572916666667 0 0.30880208333333337 0.15440104166666668 0.39372395833333335 0.6932291666666667 0.40299479166666674 0.7117708333333334 0.01234375 1.0205729166666668 0.32268229166666673 1.0283072916666667 1.0406250000000001 -0.016953125000000003 0.7494010416666667 -0.3625 1.4534635416666668 -0.944921875 1.9253385416666668l0.01234375 0.6577343750000001c-0.00109375 0.08169270833333334 -0.043515625 0.15723958333333335 -0.11270833333333334 0.20070312500000004l-0.38906250000000003 0.22388020833333336c-0.06177083333333334 0.03088541666666667 -0.11270833333333334 0 -0.11427083333333335 -0.08645833333333335V19.916666666666668c-0.33348958333333334 0.13895833333333332 -0.6716145833333335 0.17138020833333334 -0.8877864583333334 0.08492187500000001 -0.040130208333333334 -0.015442708333333334 -0.058671875000000005 -0.07565104166666667 -0.04166666666666667 -0.14513020833333334l0.14049479166666667 -0.5944270833333334c0.010677083333333335 -0.04705729166666667 0.034817708333333336 -0.08997395833333334 0.06947916666666666 -0.123515625 0.010989583333333334 -0.010546875 0.023463541666666667 -0.019375 0.03705729166666667 -0.026250000000000002 0.020130208333333333 -0.0090625 0.04317708333333334 -0.0090625 0.06330729166666667 0 0.27523437500000003 0.074609375 0.5688020833333334 0.037421875 0.8167447916666667 -0.10346354166666667 0.35778645833333333 -0.17255208333333333 0.5903125 -0.529375 0.6036979166666667 -0.9263802083333335 0 -0.33348958333333334 -0.18372395833333335 -0.4724479166666667 -0.6175781250000001 -0.47554687500000004 -0.5604687500000001 0 -1.08078125 -0.10807291666666667 -1.0915885416666666 -0.9263802083333335 0.012890625000000001 -0.7148958333333334 0.344765625 -1.3865625000000001 0.904765625 -1.8311458333333335l-0.027812500000000004 -0.6731510416666667c-0.00023437500000000002 -0.08289062500000001 0.042395833333333334 -0.15997395833333333 0.11273437500000001 -0.203828125l0.38442708333333336 -0.24546875Z" stroke-width="0.2604"></path>
</svg>